<?xml version="1.0" encoding="utf-8"?>
<!-- Generator: Adobe Illustrator 15.0.0, SVG Export Plug-In . SVG Version: 6.00 Build 0)  -->
<!DOCTYPE svg PUBLIC "-//W3C//DTD SVG 1.1//EN" "http://www.w3.org/Graphics/SVG/1.1/DTD/svg11.dtd">
<svg version="1.1" id="Layer_1" xmlns="http://www.w3.org/2000/svg" xmlns:xlink="http://www.w3.org/1999/xlink" x="0px" y="0px"
	 width="800px" height="600px" viewBox="0 0 800 600" enable-background="new 0 0 800 600" xml:space="preserve">
<radialGradient id="SVGID_1_" cx="400" cy="289" r="214" gradientUnits="userSpaceOnUse">
	<stop  offset="0" style="stop-color:#D7A2FF"/>
	<stop  offset="0.1106" style="stop-color:#C896F3"/>
	<stop  offset="0.3247" style="stop-color:#9F78D5"/>
	<stop  offset="0.6208" style="stop-color:#5F46A3"/>
	<stop  offset="0.9843" style="stop-color:#06035F"/>
	<stop  offset="1" style="stop-color:#02005C"/>
</radialGradient>
<circle fill="url(#SVGID_1_)" cx="400" cy="289" r="214"/>
<radialGradient id="SVGID_2_" cx="404" cy="113" r="41.4367" gradientTransform="matrix(-1 0 0 -0.6 808 180.8)" gradientUnits="userSpaceOnUse">
	<stop  offset="0" style="stop-color:#150073"/>
	<stop  offset="0.2208" style="stop-color:#140082"/>
	<stop  offset="0.6456" style="stop-color:#1000AA"/>
	<stop  offset="1" style="stop-color:#0C00D0"/>
</radialGradient>
<ellipse fill="url(#SVGID_2_)" stroke="#000000" stroke-miterlimit="10" cx="404" cy="113" rx="53" ry="25"/>
<radialGradient id="SVGID_3_" cx="406.0137" cy="110.7759" r="55.1638" gradientTransform="matrix(-1 0 0 -0.6 812.0273 177.2415)" gradientUnits="userSpaceOnUse">
	<stop  offset="0" style="stop-color:#150073"/>
	<stop  offset="0.2208" style="stop-color:#140082"/>
	<stop  offset="0.6456" style="stop-color:#1000AA"/>
	<stop  offset="1" style="stop-color:#0C00D0"/>
</radialGradient>
<path fill="url(#SVGID_3_)" stroke="#000000" stroke-width="2" stroke-miterlimit="10" d="M378.761,134.988
	c0,0-2.761,13.012,21.239,14.012s34-14.012,34-14.012s23,10.012,36-7c12.048-15.766-5.105-29.284-25.553-31.136
	c0,0,11.834-16.941-9.447-21.852c-34.667-8-32.95,12.833-35,13c0,0-23.302-20.851-39-14.18
	c-27.802,11.814-9.205,34.847-9.205,34.847S325.41,131,345.705,138S378.761,134.988,378.761,134.988z"/>
<radialGradient id="SVGID_4_" cx="404" cy="110.7759" r="41.4367" gradientTransform="matrix(-1 0 0 -0.6 808 177.2415)" gradientUnits="userSpaceOnUse">
	<stop  offset="0" style="stop-color:#150073"/>
	<stop  offset="0.2208" style="stop-color:#140082"/>
	<stop  offset="0.6456" style="stop-color:#1000AA"/>
	<stop  offset="1" style="stop-color:#0C00D0"/>
</radialGradient>
<ellipse fill="url(#SVGID_4_)" stroke="#000000" stroke-miterlimit="10" cx="404" cy="110.776" rx="53" ry="25"/>
<radialGradient id="SVGID_5_" cx="404" cy="110.8335" r="3.0117" gradientTransform="matrix(-1 0 0 -0.6 808 177.3336)" gradientUnits="userSpaceOnUse">
	<stop  offset="0" style="stop-color:#150073"/>
	<stop  offset="0.2208" style="stop-color:#140082"/>
	<stop  offset="0.6456" style="stop-color:#1000AA"/>
	<stop  offset="1" style="stop-color:#0C00D0"/>
</radialGradient>
<ellipse fill="url(#SVGID_5_)" stroke="#000000" stroke-miterlimit="10" cx="404" cy="110.833" rx="3.667" ry="2.167"/>
<radialGradient id="SVGID_6_" cx="404" cy="138" r="0" gradientTransform="matrix(-1 0 0 -0.6 808 220.8)" gradientUnits="userSpaceOnUse">
	<stop  offset="0" style="stop-color:#150073"/>
	<stop  offset="0.2208" style="stop-color:#140082"/>
	<stop  offset="0.6456" style="stop-color:#1000AA"/>
	<stop  offset="1" style="stop-color:#0C00D0"/>
</radialGradient>
<path fill="url(#SVGID_6_)" stroke="#000000" stroke-miterlimit="10" d="M404,138"/>
<g>
	<path d="M114.189,273.882c0-2.741,2.284-4.934,4.567-12.061c2.284-7.127,2.284-15.351,6.28-19.188
		c3.997-3.838,6.852-2.193,10.847,0c3.997,2.193,66.226,24.122,99.91,34.539c33.683,10.417,67.938,21.93,86.778,20.833
		c18.839-1.097,21.123,1.096,23.979-4.386c2.854-5.483,30.258-62.5,45.672-70.723c15.415-8.224,40.535-13.706,54.808-9.868
		c14.271,3.837,26.261,14.254,33.112,24.122c6.851,9.869,11.418,23.575,11.418,23.575s18.27-19.188,26.833-22.478
		c8.563-3.289,13.131-4.934,18.84-3.289c5.709,1.644,8.563,9.868,8.563,9.868s9.135-25.768,23.978-43.859
		c14.845-18.092,27.975-20.285,34.256-20.833c6.279-0.548,23.978,1.096,33.683,18.64c9.706,17.543,10.848,29.605,10.848,29.605
		l10.276,3.29v16.447l-9.705,7.676c0,0-5.71,28.105-12.56,42.287c-6.852,14.181-22.837,38.853-46.245,39.401
		c-23.406,0.547-37.108-23.574-39.963-31.25c-2.854-7.675-7.422-36.184-7.422-36.184s-3.426-13.232-8.563-12.646
		c-5.138,0.585-11.989,4.423-19.411,11.55s-22.266,22.138-22.266,22.138s-9.706,44.199-24.549,62.291
		c-14.844,18.093-30.259,36.184-63.942,33.442s-37.108-21.929-42.817-30.153c-5.709-8.223-10.848-30.701-14.273-27.96
		c-3.426,2.741,5.709,2.192-11.418,0.549c-17.128-1.645-121.604-37.829-130.738-41.119c-9.134-3.289-58.233-28.508-62.229-29.605
		c-3.997-1.096-9.135-7.127-10.847-4.934c-1.713,2.193,0,15.351-1.713,19.736s-5.709,16.996-9.135,14.802
		C117.615,285.944,114.189,273.882,114.189,273.882z"/>
	<linearGradient id="SVGID_7_" gradientUnits="userSpaceOnUse" x1="361.8726" y1="298.8896" x2="479.7871" y2="298.8896">
		<stop  offset="0" style="stop-color:#A2FFD4"/>
		<stop  offset="1" style="stop-color:#FFFFFF"/>
	</linearGradient>
	<path fill="url(#SVGID_7_)" stroke="#000000" stroke-miterlimit="10" d="M435.041,220.155c7.422,1.097,28.545,4.386,37.68,24.671
		c9.135,20.285,9.705,55.92,0,79.495s-21.124,36.731-37.68,44.956c-16.557,8.223-37.109,13.706-51.382,0
		s-24.549-36.732-21.124-61.951c3.426-25.219,13.258-50.213,26.743-65.241c17.217-19.188,43.479-21.93,43.479-21.93H435.041z"/>
	<linearGradient id="SVGID_8_" gradientUnits="userSpaceOnUse" x1="555.1299" y1="259.2754" x2="641.5645" y2="259.2754">
		<stop  offset="0" style="stop-color:#A2FFD4"/>
		<stop  offset="1" style="stop-color:#FFFFFF"/>
	</linearGradient>
	<path fill="url(#SVGID_8_)" stroke="#000000" stroke-miterlimit="10" d="M613.164,187.809
		c11.419,4.934,22.836,19.188,26.832,32.346c3.997,13.158-0.57,33.443-3.424,46.6c-2.855,13.158-13.528,46.5-30.83,56.469
		c-17.127,9.868-27.261,9.457-34.683,2.056c-13.234-13.197-17.27-30.838-15.558-54.412c1.713-23.574,10.848-44.134,17.698-57.291
		c6.852-13.158,21.598-24.594,37.68-25.768H613.164z"/>
</g>
</svg>
